<svg width="32" height="33" viewBox="0 0 32 33" fill="none" xmlns="http://www.w3.org/2000/svg">
<circle opacity="0.2" cx="16" cy="16.1992" r="16" fill="#E61B00"/>
<path d="M18.9587 10.2656C17.752 10.2656 16.672 10.8523 15.9987 11.7523C15.3254 10.8523 14.2454 10.2656 13.0387 10.2656C10.992 10.2656 9.33203 11.9323 9.33203 13.9923C9.33203 14.7856 9.4587 15.519 9.6787 16.199C10.732 19.5323 13.9787 21.5256 15.5854 22.0723C15.812 22.1523 16.1854 22.1523 16.412 22.0723C18.0187 21.5256 21.2654 19.5323 22.3187 16.199C22.5387 15.519 22.6654 14.7856 22.6654 13.9923C22.6654 11.9323 21.0054 10.2656 18.9587 10.2656Z" fill="#E61B00"/>
</svg>
