<svg width="32" height="33" viewBox="0 0 32 33" fill="none" xmlns="http://www.w3.org/2000/svg">
<circle opacity="0.1" cx="16" cy="16.1992" r="16" fill="#005BD4"/>
<path d="M20 10.8665H18.5V10.0332C18.5 9.75987 18.2733 9.5332 18 9.5332C17.7267 9.5332 17.5 9.75987 17.5 10.0332V22.3665C17.5 22.6399 17.7267 22.8665 18 22.8665C18.2733 22.8665 18.5 22.6399 18.5 22.3665V21.5332H20C21.4733 21.5332 22.6667 20.3399 22.6667 18.8665V13.5332C22.6667 12.0599 21.4733 10.8665 20 10.8665Z" fill="#005BD4"/>
<path d="M12.3346 10.8652C10.8613 10.8652 9.66797 12.0586 9.66797 13.5319V18.8652C9.66797 20.3386 10.8613 21.5319 12.3346 21.5319H15.668C16.0346 21.5319 16.3346 21.2319 16.3346 20.8652V11.5319C16.3346 11.1652 16.0346 10.8652 15.668 10.8652H12.3346ZM12.448 16.4519C12.4146 16.5319 12.368 16.6052 12.308 16.6719C12.2413 16.7319 12.168 16.7786 12.088 16.8119C12.008 16.8452 11.9213 16.8652 11.8346 16.8652C11.748 16.8652 11.6613 16.8452 11.5813 16.8119C11.5013 16.7786 11.428 16.7319 11.3613 16.6719C11.3013 16.6052 11.2546 16.5319 11.2146 16.4519C11.1813 16.3719 11.168 16.2852 11.168 16.1986C11.168 16.0252 11.2413 15.8519 11.3613 15.7252C11.3946 15.6986 11.428 15.6719 11.4613 15.6452C11.5013 15.6186 11.5413 15.5986 11.5813 15.5852C11.6213 15.5652 11.6613 15.5519 11.7013 15.5452C11.928 15.4986 12.1546 15.5719 12.308 15.7252C12.428 15.8519 12.5013 16.0252 12.5013 16.1986C12.5013 16.2852 12.4813 16.3719 12.448 16.4519ZM14.7813 16.4519C14.748 16.5319 14.7013 16.6052 14.6413 16.6719C14.5746 16.7319 14.5013 16.7786 14.4213 16.8119C14.3413 16.8452 14.2546 16.8652 14.168 16.8652C14.0813 16.8652 13.9946 16.8452 13.9146 16.8119C13.8346 16.7786 13.7613 16.7319 13.6946 16.6719C13.568 16.5452 13.5013 16.3786 13.5013 16.1986C13.5013 16.1119 13.5213 16.0252 13.5546 15.9452C13.588 15.8586 13.6346 15.7919 13.6946 15.7252C13.9413 15.4786 14.388 15.4786 14.6413 15.7252C14.7613 15.8519 14.8346 16.0252 14.8346 16.1986C14.8346 16.2852 14.8146 16.3719 14.7813 16.4519Z" fill="#005BD4"/>
</svg>
