<svg width="32" height="33" viewBox="0 0 32 33" fill="none" xmlns="http://www.w3.org/2000/svg">
<circle cx="16" cy="16.1992" r="16" fill="#EAF9DE"/>
<path d="M15.9987 9.5332C12.3254 9.5332 9.33203 12.5265 9.33203 16.1999C9.33203 19.8732 12.3254 22.8665 15.9987 22.8665C19.672 22.8665 22.6654 19.8732 22.6654 16.1999C22.6654 12.5265 19.672 9.5332 15.9987 9.5332ZM19.1854 14.6665L15.4054 18.4465C15.312 18.5399 15.1854 18.5932 15.052 18.5932C14.9187 18.5932 14.792 18.5399 14.6987 18.4465L12.812 16.5599C12.6187 16.3665 12.6187 16.0465 12.812 15.8532C13.0054 15.6599 13.3254 15.6599 13.5187 15.8532L15.052 17.3865L18.4787 13.9599C18.672 13.7665 18.992 13.7665 19.1854 13.9599C19.3787 14.1532 19.3787 14.4665 19.1854 14.6665Z" fill="#008A00"/>
</svg>
