<svg width="32" height="33" viewBox="0 0 32 33" fill="none" xmlns="http://www.w3.org/2000/svg">
<circle opacity="0.2" cx="16" cy="16.1992" r="16" fill="#EAAC30"/>
<path d="M16.952 11.8199V12.7132C15.2054 12.8532 14.212 13.9732 14.212 15.8199V18.8665H11.6187C10.092 18.8665 9.33203 18.1065 9.33203 16.5799V11.8199C9.33203 10.2932 10.092 9.5332 11.6187 9.5332H14.6654C16.192 9.5332 16.952 10.2932 16.952 11.8199Z" fill="#EAAC30"/>
<path d="M20.3802 13.5332H17.3335C15.8069 13.5332 15.0469 14.2932 15.0469 15.8199V20.5799C15.0469 22.1065 15.8069 22.8665 17.3335 22.8665H20.3802C21.9069 22.8665 22.6669 22.1065 22.6669 20.5799V15.8199C22.6669 14.2932 21.9069 13.5332 20.3802 13.5332ZM20.0869 18.6999H19.5002V19.2865C19.5002 19.5599 19.2735 19.7865 19.0002 19.7865C18.7269 19.7865 18.5002 19.5599 18.5002 19.2865V18.6999H17.9135C17.6402 18.6999 17.4135 18.4732 17.4135 18.1999C17.4135 17.9265 17.6402 17.6999 17.9135 17.6999H18.5002V17.1132C18.5002 16.8399 18.7269 16.6132 19.0002 16.6132C19.2735 16.6132 19.5002 16.8399 19.5002 17.1132V17.6999H20.0869C20.3602 17.6999 20.5869 17.9265 20.5869 18.1999C20.5869 18.4732 20.3602 18.6999 20.0869 18.6999Z" fill="#EAAC30"/>
</svg>
