<svg width="172" height="73" viewBox="0 0 172 73" fill="none" xmlns="http://www.w3.org/2000/svg">
<path fill-rule="evenodd" clip-rule="evenodd" d="M27.7901 1.31567C30.8285 -0.438555 34.5719 -0.438556 37.6103 1.31567L60.4903 14.5254C63.5287 16.2796 65.4004 19.5216 65.4004 23.03V49.4495C65.4004 52.9579 63.5287 56.1998 60.4903 57.9541L37.6103 71.1638C34.5719 72.918 30.8285 72.918 27.7901 71.1638L4.91014 57.9541C4.38997 57.6538 3.904 57.3098 3.45576 56.9284C3.81346 56.907 4.17024 56.7873 4.48433 56.5609L12.6857 50.6489C17.1651 56.8238 24.4391 60.8396 32.651 60.8396C46.2642 60.8396 57.2999 49.8039 57.2999 36.1907C57.2999 22.5775 46.2642 11.5418 32.651 11.5418C19.0378 11.5418 8.00213 22.5775 8.00213 36.1907C8.00213 39.5622 8.67903 42.7756 9.90435 45.7024C9.87515 45.7157 9.84613 45.7298 9.81732 45.7447L0.739318 50.4276C0.48904 50.5567 0.278796 50.7316 0.113041 50.9365C0.0383701 50.4487 0 49.9518 0 49.4495V23.03C0 19.5216 1.87173 16.2796 4.91013 14.5254L27.7901 1.31567ZM22.6343 20.8711V28.3836L31.8653 33.6865C32.7164 34.1448 34.4284 35.6211 34.4677 37.8601C34.507 40.0991 34.484 46.0928 34.4677 48.8097L40.9491 52.6396V32.9991C41.0145 32.5244 40.9098 31.4377 39.967 30.8877C39.0243 30.3378 28.019 23.9808 22.6343 20.8711ZM32.651 22.4914V14.9789C38.0358 18.0887 49.041 24.4456 49.9838 24.9956C50.9265 25.5455 51.0313 26.6323 50.9658 27.1069V46.7475L44.4844 42.9176C44.5008 40.2006 44.5237 34.207 44.4844 31.968C44.4451 29.7289 42.7331 28.2526 41.882 27.7944L32.651 22.4914ZM14.2871 27.6961V46.06C14.3035 46.3219 14.5032 46.9439 15.1709 47.3367C15.8387 47.7295 25.9569 53.5889 30.9325 56.4695V38.3511C30.9325 38.0238 30.795 37.2807 30.245 36.9272C29.6951 36.5737 19.3773 30.6259 14.2871 27.6961Z" fill="url(#paint0_linear_938_62)"/>
<path d="M32.6737 22.506V14.9329C38.0585 18.0426 49.0637 24.5272 50.0064 25.0772C50.9492 25.6271 51.0539 26.7139 50.9885 27.1885V46.8291L44.4158 42.8842C44.4322 40.1673 44.5464 34.2886 44.5071 32.0496C44.4678 29.8105 42.7558 28.3342 41.9047 27.8759L32.6737 22.506Z" fill="url(#paint1_linear_938_62)"/>
<path d="M75.5886 27.2623C75.5886 26.7613 75.5995 26.391 75.6213 26.1514C75.6649 25.89 75.7738 25.596 75.948 25.2692C76.253 24.6811 77.1025 24.387 78.4966 24.387C80.0214 24.387 80.9253 24.79 81.2085 25.596C81.3174 25.9663 81.3719 26.5326 81.3719 27.295V45.4616C81.3719 45.9843 81.3501 46.3655 81.3065 46.6051C81.2847 46.8448 81.1867 47.1279 81.0125 47.4547C80.7075 48.0428 79.858 48.3369 78.4639 48.3369C76.9391 48.3369 76.0461 47.923 75.7847 47.0953C75.654 46.7467 75.5886 46.1913 75.5886 45.4289V27.2623ZM102.702 25.3999C102.92 25.0078 103.236 24.7464 103.65 24.6157C104.064 24.485 104.576 24.4197 105.186 24.4197C105.817 24.4197 106.318 24.4742 106.689 24.5831C107.081 24.692 107.364 24.8227 107.538 24.9752C107.734 25.1276 107.876 25.3563 107.963 25.6613C108.094 26.0098 108.159 26.5653 108.159 27.3277V45.4616C108.159 45.9843 108.137 46.3655 108.094 46.6051C108.072 46.8448 107.974 47.1279 107.8 47.4547C107.495 48.0428 106.645 48.3369 105.251 48.3369C104.401 48.3369 103.813 48.2715 103.487 48.1408C103.16 48.0101 102.888 47.8032 102.67 47.52C97.7687 40.9853 94.5449 36.7159 92.9983 34.7119V45.4616C92.9983 45.9843 92.9766 46.3655 92.933 46.6051C92.9112 46.8448 92.8132 47.1279 92.6389 47.4547C92.334 48.0428 91.4845 48.3369 90.0904 48.3369C88.7399 48.3369 87.9121 48.0428 87.6072 47.4547C87.4329 47.1279 87.324 46.8339 87.2805 46.5725C87.2587 46.3111 87.2478 45.9299 87.2478 45.4289V27.197C87.2478 26.3692 87.3458 25.7702 87.5418 25.3999C87.7597 25.0078 88.0755 24.7464 88.4894 24.6157C88.9032 24.485 89.4369 24.4197 90.0904 24.4197C90.7439 24.4197 91.2558 24.485 91.6261 24.6157C92.0181 24.7247 92.2904 24.8554 92.4429 25.0078C92.53 25.0732 92.7805 25.3563 93.1944 25.8573C97.7905 32.1089 100.862 36.2367 102.408 38.2407V27.197C102.408 26.3692 102.506 25.7702 102.702 25.3999ZM132.361 44.2853C132.688 45.0695 132.851 45.6358 132.851 45.9843C132.851 46.8121 132.176 47.5091 130.826 48.0755C130.129 48.3804 129.562 48.5329 129.127 48.5329C128.713 48.5329 128.364 48.4349 128.081 48.2388C127.82 48.021 127.624 47.8032 127.493 47.5854C127.275 47.1715 126.426 45.2002 124.944 41.6714L123.931 41.7368H119.815V45.4289C119.815 45.9299 119.793 46.3111 119.749 46.5725C119.727 46.8121 119.629 47.0953 119.455 47.422C119.15 48.0101 118.301 48.3042 116.907 48.3042C115.382 48.3042 114.489 47.9012 114.227 47.0953C114.097 46.725 114.031 46.1586 114.031 45.3962V27.2623C114.031 26.7613 114.042 26.391 114.064 26.1514C114.108 25.89 114.216 25.596 114.391 25.2692C114.696 24.6811 115.545 24.387 116.939 24.387H123.997C125.914 24.387 127.776 25.0841 129.584 26.4781C130.455 27.1534 131.174 28.0683 131.74 29.2227C132.307 30.3772 132.59 31.6624 132.59 33.0782C132.59 35.5397 131.773 37.5654 130.139 39.1555C130.619 40.31 131.359 42.0199 132.361 44.2853ZM119.815 35.9535H123.997C124.628 35.9535 125.26 35.7139 125.892 35.2347C126.524 34.7555 126.839 34.0367 126.839 33.0782C126.839 32.1198 126.524 31.401 125.892 30.9218C125.26 30.4208 124.607 30.1703 123.931 30.1703H119.815V35.9535ZM137.911 27.2623C137.911 26.7613 137.922 26.391 137.944 26.1514C137.987 25.89 138.096 25.596 138.271 25.2692C138.576 24.6811 139.425 24.387 140.819 24.387C142.344 24.387 143.248 24.79 143.531 25.596C143.64 25.9663 143.694 26.5326 143.694 27.295V45.4616C143.694 45.9843 143.673 46.3655 143.629 46.6051C143.607 46.8448 143.509 47.1279 143.335 47.4547C143.03 48.0428 142.181 48.3369 140.786 48.3369C139.262 48.3369 138.369 47.923 138.107 47.0953C137.977 46.7467 137.911 46.1913 137.911 45.4289V27.2623ZM152.478 24.3544L158.523 24.387C161.681 24.387 164.459 25.5306 166.855 27.8178C169.251 30.0831 170.449 32.8822 170.449 36.2149C170.449 39.5258 169.273 42.3685 166.92 44.7427C164.589 47.117 161.758 48.3042 158.425 48.3042H152.446C151.117 48.3042 150.289 48.0319 149.962 47.4873C149.701 47.0299 149.57 46.3329 149.57 45.3962V27.2296C149.57 26.7069 149.581 26.3257 149.603 26.0861C149.647 25.8465 149.755 25.5633 149.93 25.2365C150.235 24.6484 151.084 24.3544 152.478 24.3544ZM158.523 42.5209C160.091 42.5209 161.507 41.9437 162.77 40.7892C164.034 39.613 164.666 38.1427 164.666 36.3783C164.666 34.6139 164.045 33.1436 162.803 31.9673C161.583 30.7693 160.146 30.1703 158.49 30.1703H155.354V42.5209H158.523Z" fill="black"/>
<path d="M76.3647 54.8274C76.2966 54.8274 76.2455 54.8172 76.2115 54.7968C76.1809 54.7797 76.1605 54.7542 76.1502 54.7202C76.14 54.6827 76.1349 54.6402 76.1349 54.5925V51.4937C76.1349 51.446 76.14 51.4052 76.1502 51.3711C76.1639 51.3371 76.186 51.3116 76.2166 51.2945C76.2506 51.2741 76.3017 51.2639 76.3698 51.2639C76.4378 51.2639 76.4872 51.2741 76.5178 51.2945C76.5519 51.3116 76.5723 51.3371 76.5791 51.3711C76.5893 51.4052 76.5944 51.4477 76.5944 51.4988V54.5977C76.5944 54.6453 76.5893 54.6861 76.5791 54.7202C76.5689 54.7542 76.5467 54.7797 76.5127 54.7968C76.4821 54.8172 76.4327 54.8274 76.3647 54.8274ZM77.4664 54.8223C77.4017 54.8223 77.3523 54.8121 77.3183 54.7917C77.2877 54.7746 77.2673 54.7491 77.257 54.7151C77.2502 54.681 77.2468 54.6402 77.2468 54.5925V52.5658C77.2468 52.5215 77.2519 52.4841 77.2622 52.4534C77.2724 52.4228 77.2928 52.399 77.3234 52.382C77.3575 52.3649 77.4068 52.3564 77.4715 52.3564C77.5225 52.3564 77.5617 52.3632 77.5889 52.3769C77.6195 52.3871 77.6399 52.4024 77.6502 52.4228C77.6638 52.4432 77.6723 52.4654 77.6757 52.4892C77.6791 52.513 77.6808 52.5351 77.6808 52.5555L77.6706 52.7904C77.7046 52.7325 77.7472 52.6781 77.7982 52.627C77.8493 52.5726 77.9088 52.5249 77.9769 52.4841C78.045 52.4398 78.1181 52.4058 78.1964 52.382C78.2781 52.3581 78.3649 52.3462 78.4568 52.3462C78.6065 52.3462 78.7444 52.3735 78.8703 52.4279C78.9962 52.479 79.1035 52.5555 79.1919 52.6577C79.2838 52.7564 79.3536 52.8755 79.4013 53.015C79.4523 53.1546 79.4778 53.3128 79.4778 53.4898V54.5977C79.4778 54.6453 79.4727 54.6861 79.4625 54.7202C79.4557 54.7542 79.4353 54.7797 79.4013 54.7968C79.3706 54.8138 79.323 54.8223 79.2583 54.8223C79.1902 54.8223 79.1392 54.8121 79.1052 54.7917C79.0745 54.7746 79.0541 54.7491 79.0439 54.7151C79.0337 54.681 79.0286 54.6402 79.0286 54.5925V53.4847C79.0286 53.3418 79.0047 53.2175 78.9571 53.112C78.9095 53.0065 78.838 52.9248 78.7427 52.867C78.6474 52.8057 78.5266 52.7751 78.3802 52.7751C78.2407 52.7751 78.1181 52.8057 78.0126 52.867C77.9105 52.9248 77.8305 53.0065 77.7727 53.112C77.7182 53.2175 77.691 53.3418 77.691 53.4847V54.5977C77.691 54.6453 77.6859 54.6861 77.6757 54.7202C77.6655 54.7542 77.6433 54.7797 77.6093 54.7968C77.5787 54.8138 77.531 54.8223 77.4664 54.8223ZM80.9756 54.8376C80.9177 54.8376 80.87 54.8291 80.8326 54.8121C80.7986 54.7951 80.7696 54.7644 80.7458 54.7202L79.8013 52.6628C79.7639 52.5811 79.7554 52.5198 79.7758 52.479C79.7962 52.4347 79.8439 52.3939 79.9188 52.3564C79.9868 52.3224 80.0447 52.3122 80.0923 52.3258C80.14 52.336 80.1808 52.3803 80.2149 52.4585L80.9756 54.2709L81.7209 52.5096C81.7584 52.4313 81.7992 52.3752 81.8435 52.3411C81.8877 52.3071 81.9575 52.3139 82.0528 52.3615C82.1447 52.4058 82.1906 52.4568 82.1906 52.5147C82.1906 52.5692 82.1753 52.6287 82.1447 52.6934L81.2053 54.7151C81.1883 54.7559 81.161 54.7865 81.1236 54.807C81.0862 54.8274 81.0368 54.8376 80.9756 54.8376ZM83.6805 54.8529C83.4763 54.8529 83.2942 54.8189 83.1342 54.7508C82.9743 54.6827 82.8381 54.5908 82.7258 54.4751C82.6169 54.356 82.5335 54.2199 82.4757 54.0667C82.4178 53.9135 82.3889 53.7485 82.3889 53.5715C82.3889 53.3367 82.4433 53.1273 82.5522 52.9435C82.6612 52.7598 82.8109 52.6151 83.0015 52.5096C83.1955 52.4007 83.4167 52.3462 83.6652 52.3462C83.8354 52.3462 83.9868 52.3735 84.1196 52.4279C84.2557 52.479 84.3714 52.5487 84.4667 52.6372C84.562 52.7257 84.6352 52.8244 84.6862 52.9333C84.7373 53.0422 84.7628 53.1512 84.7628 53.2601C84.7628 53.4337 84.722 53.5562 84.6403 53.6277C84.5586 53.6957 84.4582 53.7298 84.3391 53.7298H82.8637C82.8603 53.8795 82.8994 54.0088 82.9811 54.1178C83.0662 54.2233 83.1717 54.305 83.2976 54.3628C83.4269 54.4207 83.5563 54.4496 83.6856 54.4496C83.7809 54.4496 83.8626 54.4445 83.9307 54.4343C83.9987 54.4241 84.0583 54.4105 84.1094 54.3934C84.1604 54.3764 84.2046 54.3594 84.2421 54.3424C84.2795 54.3254 84.3119 54.3084 84.3391 54.2913C84.3697 54.2743 84.3986 54.2624 84.4259 54.2556C84.4565 54.2488 84.4854 54.2522 84.5127 54.2658C84.5433 54.276 84.5671 54.2981 84.5841 54.3322C84.6046 54.3594 84.6182 54.3849 84.625 54.4088C84.6318 54.4326 84.6352 54.4581 84.6352 54.4853C84.6352 54.533 84.5944 54.5857 84.5127 54.6436C84.431 54.7015 84.317 54.7508 84.1706 54.7917C84.0277 54.8325 83.8643 54.8529 83.6805 54.8529ZM82.8637 53.4285H84.1451C84.2098 53.4285 84.2574 53.42 84.288 53.403C84.3221 53.386 84.3391 53.3401 84.3391 53.2652C84.3391 53.1699 84.3102 53.0848 84.2523 53.0099C84.1944 52.9316 84.1145 52.8687 84.0124 52.821C83.9136 52.7734 83.7996 52.7495 83.6703 52.7495C83.5205 52.7495 83.3827 52.7802 83.2568 52.8414C83.1342 52.8993 83.0372 52.9793 82.9658 53.0814C82.8943 53.1835 82.8603 53.2992 82.8637 53.4285ZM86.0955 54.8529C86.0138 54.8529 85.9287 54.8444 85.8402 54.8274C85.7517 54.8104 85.665 54.7865 85.5799 54.7559C85.4982 54.7219 85.425 54.6827 85.3603 54.6385C85.2991 54.5942 85.2531 54.5449 85.2225 54.4904C85.2055 54.4564 85.1953 54.4258 85.1919 54.3985C85.1885 54.3679 85.1936 54.339 85.2072 54.3118C85.2208 54.2845 85.2412 54.2573 85.2684 54.2301C85.3025 54.1892 85.3365 54.1705 85.3706 54.1739C85.4046 54.1739 85.4471 54.196 85.4982 54.2403C85.5356 54.2641 85.5799 54.2913 85.6309 54.322C85.682 54.3492 85.7347 54.3747 85.7892 54.3985C85.8436 54.419 85.8981 54.4377 85.9526 54.4547C86.0104 54.4683 86.0666 54.4751 86.121 54.4751C86.2776 54.4751 86.4035 54.4462 86.4988 54.3883C86.5941 54.3271 86.6418 54.2471 86.6418 54.1484C86.6418 54.0905 86.6298 54.0412 86.606 54.0003C86.5822 53.9595 86.5499 53.9255 86.509 53.8982C86.4682 53.8676 86.4222 53.8421 86.3712 53.8217C86.3201 53.8012 86.2623 53.7825 86.1976 53.7655C86.1363 53.7451 86.0751 53.7264 86.0138 53.7093C85.9219 53.6855 85.8317 53.6583 85.7432 53.6277C85.6547 53.597 85.5748 53.5579 85.5033 53.5102C85.4318 53.4592 85.374 53.3962 85.3297 53.3213C85.2855 53.2431 85.2633 53.1444 85.2633 53.0252C85.2633 52.8857 85.2991 52.7649 85.3706 52.6628C85.442 52.5607 85.5424 52.4824 85.6718 52.4279C85.8011 52.3701 85.9526 52.3411 86.1261 52.3411C86.201 52.3411 86.2708 52.3462 86.3354 52.3564C86.4001 52.3667 86.4614 52.3837 86.5192 52.4075C86.5805 52.4279 86.6384 52.4534 86.6928 52.4841C86.7473 52.5113 86.8 52.5453 86.8511 52.5862C86.9123 52.627 86.9447 52.6713 86.9481 52.7189C86.9515 52.7666 86.9328 52.8159 86.8919 52.867C86.8613 52.9112 86.8273 52.9401 86.7898 52.9538C86.7524 52.964 86.7149 52.9538 86.6775 52.9231C86.623 52.8823 86.5652 52.8465 86.5039 52.8159C86.4427 52.7853 86.3797 52.7598 86.315 52.7393C86.2504 52.7189 86.184 52.7087 86.1159 52.7087C86.0308 52.7087 85.9543 52.7223 85.8862 52.7495C85.8215 52.7734 85.7705 52.8108 85.733 52.8619C85.699 52.9095 85.682 52.964 85.682 53.0252C85.682 53.0797 85.6956 53.1239 85.7228 53.158C85.7534 53.192 85.7909 53.2209 85.8351 53.2448C85.8828 53.2686 85.9372 53.2907 85.9985 53.3111C86.0632 53.3281 86.1295 53.3452 86.1976 53.3622C86.2963 53.386 86.3967 53.4149 86.4988 53.449C86.6043 53.4796 86.6979 53.5221 86.7796 53.5766C86.8647 53.6277 86.9328 53.6974 86.9838 53.7859C87.0383 53.871 87.0655 53.985 87.0655 54.128C87.0655 54.3526 86.977 54.5296 86.8 54.6589C86.623 54.7882 86.3882 54.8529 86.0955 54.8529ZM88.701 54.8274C88.5411 54.8274 88.4049 54.8121 88.2926 54.7814C88.1837 54.7508 88.0935 54.7032 88.022 54.6385C87.9505 54.5738 87.8995 54.4904 87.8689 54.3883C87.8382 54.2828 87.8229 54.1535 87.8229 54.0003V51.7438C87.8229 51.6962 87.828 51.6553 87.8382 51.6213C87.8484 51.5872 87.8689 51.5617 87.8995 51.5447C87.9301 51.5243 87.9778 51.5141 88.0424 51.5141C88.1071 51.5141 88.1565 51.5243 88.1905 51.5447C88.2245 51.5617 88.2466 51.5872 88.2569 51.6213C88.2671 51.6519 88.2722 51.6911 88.2722 51.7387V54.0003C88.2722 54.0888 88.279 54.1603 88.2926 54.2148C88.3096 54.2658 88.3334 54.305 88.3641 54.3322C88.3981 54.3594 88.4424 54.3764 88.4968 54.3832C88.5513 54.39 88.6176 54.3934 88.6959 54.3934C88.7504 54.3934 88.7946 54.3985 88.8286 54.4088C88.8627 54.419 88.8882 54.4394 88.9052 54.47C88.9222 54.5007 88.9308 54.5466 88.9308 54.6079C88.9308 54.6725 88.9205 54.7219 88.9001 54.7559C88.8831 54.7865 88.8559 54.8053 88.8184 54.8121C88.7844 54.8223 88.7453 54.8274 88.701 54.8274ZM87.5574 52.4126L88.0475 52.4177L88.7572 52.4075C88.8048 52.4075 88.8457 52.4126 88.8797 52.4228C88.9137 52.4296 88.9393 52.45 88.9563 52.4841C88.9767 52.5147 88.9869 52.5624 88.9869 52.627C88.9869 52.6917 88.9784 52.741 88.9614 52.7751C88.9444 52.8057 88.9188 52.8261 88.8848 52.8363C88.8508 52.8465 88.8099 52.8517 88.7623 52.8517L88.0629 52.8414L87.5472 52.8465C87.4758 52.8465 87.4264 52.8295 87.3992 52.7955C87.3754 52.7615 87.3634 52.7053 87.3634 52.627C87.3634 52.5521 87.3788 52.4977 87.4094 52.4637C87.44 52.4296 87.4894 52.4126 87.5574 52.4126ZM89.7066 54.8274C89.642 54.8274 89.5926 54.8172 89.5586 54.7968C89.528 54.7797 89.5075 54.7542 89.4973 54.7202C89.4871 54.6861 89.482 54.6453 89.482 54.5977V52.5811C89.482 52.5334 89.4871 52.4926 89.4973 52.4585C89.5075 52.4245 89.528 52.399 89.5586 52.382C89.5926 52.3649 89.6437 52.3564 89.7117 52.3564C89.7764 52.3564 89.8241 52.3667 89.8547 52.3871C89.8853 52.4041 89.9057 52.4296 89.916 52.4637C89.9262 52.4977 89.9313 52.5402 89.9313 52.5913V54.6028C89.9313 54.6504 89.9262 54.6912 89.916 54.7253C89.9057 54.7593 89.8836 54.7848 89.8496 54.8019C89.819 54.8189 89.7713 54.8274 89.7066 54.8274ZM89.7066 51.7438C89.6318 51.7438 89.5756 51.7336 89.5382 51.7132C89.5007 51.6894 89.4752 51.657 89.4616 51.6162C89.4514 51.5753 89.4463 51.5277 89.4463 51.4732C89.4463 51.4188 89.4531 51.3728 89.4667 51.3354C89.4803 51.2945 89.5058 51.2656 89.5433 51.2486C89.5807 51.2282 89.6369 51.218 89.7117 51.218C89.7832 51.218 89.8377 51.2282 89.8751 51.2486C89.9125 51.269 89.9364 51.2997 89.9466 51.3405C89.9602 51.3813 89.967 51.429 89.967 51.4834C89.967 51.5379 89.9602 51.5855 89.9466 51.6264C89.9364 51.6638 89.9125 51.6928 89.8751 51.7132C89.8377 51.7336 89.7815 51.7438 89.7066 51.7438ZM91.6397 55.828C91.5205 55.828 91.4065 55.8144 91.2976 55.7872C91.1887 55.76 91.0934 55.7242 91.0117 55.68C90.93 55.6357 90.8654 55.5881 90.8177 55.537C90.7701 55.486 90.7462 55.4383 90.7462 55.3941C90.7462 55.36 90.7513 55.3311 90.7616 55.3073C90.7718 55.2869 90.7871 55.2647 90.8075 55.2409C90.8415 55.2069 90.8688 55.1831 90.8892 55.1694C90.9096 55.1558 90.9368 55.149 90.9709 55.149C91.0049 55.149 91.0389 55.1626 91.073 55.1899C91.107 55.2205 91.1478 55.2528 91.1955 55.2869C91.2466 55.3243 91.3078 55.3566 91.3793 55.3839C91.4542 55.4145 91.5461 55.4298 91.655 55.4298C91.7673 55.4298 91.8677 55.4128 91.9562 55.3788C92.0447 55.3447 92.1213 55.2937 92.1859 55.2256C92.2506 55.1575 92.2999 55.0741 92.334 54.9754C92.368 54.8801 92.385 54.7712 92.385 54.6487L92.3748 52.5249C92.3782 52.4602 92.3969 52.4143 92.431 52.3871C92.4684 52.3598 92.5263 52.3462 92.6046 52.3462C92.6692 52.3462 92.7152 52.3564 92.7424 52.3769C92.773 52.3939 92.7917 52.4194 92.7986 52.4534C92.8088 52.4841 92.8139 52.5232 92.8139 52.5709V54.6844C92.8139 54.8648 92.7849 55.0248 92.7271 55.1643C92.6692 55.3073 92.5875 55.4281 92.482 55.5268C92.3765 55.6255 92.2523 55.7004 92.1093 55.7514C91.9664 55.8025 91.8098 55.828 91.6397 55.828ZM91.6243 54.7712C91.461 54.7712 91.3095 54.7423 91.17 54.6844C91.0338 54.6232 90.913 54.5381 90.8075 54.4292C90.7054 54.3203 90.6254 54.1926 90.5676 54.0463C90.5131 53.8999 90.4859 53.74 90.4859 53.5664C90.4859 53.3928 90.5131 53.2328 90.5676 53.0865C90.6254 52.9401 90.7054 52.8125 90.8075 52.7036C90.9096 52.5947 91.0287 52.5113 91.1649 52.4534C91.3044 52.3922 91.4559 52.3615 91.6192 52.3615C91.769 52.3615 91.9051 52.3905 92.0277 52.4483C92.1502 52.5062 92.254 52.5896 92.3391 52.6985C92.4276 52.804 92.4939 52.9299 92.5382 53.0763C92.5824 53.2226 92.6046 53.386 92.6046 53.5664C92.6046 53.8114 92.5654 54.0242 92.4871 54.2045C92.4089 54.3849 92.2965 54.5245 92.1502 54.6232C92.0038 54.7219 91.8286 54.7712 91.6243 54.7712ZM91.6499 54.3526C91.786 54.3526 91.9085 54.3186 92.0174 54.2505C92.1264 54.1824 92.2131 54.0888 92.2778 53.9697C92.3425 53.8506 92.3748 53.7127 92.3748 53.5562C92.3748 53.403 92.3425 53.2686 92.2778 53.1529C92.2131 53.0337 92.1247 52.9418 92.0123 52.8772C91.9034 52.8125 91.7792 52.7802 91.6397 52.7802C91.5001 52.7802 91.3759 52.8125 91.267 52.8772C91.1581 52.9418 91.073 53.0337 91.0117 53.1529C90.9538 53.2686 90.9249 53.4047 90.9249 53.5613C90.9249 53.7178 90.9556 53.8557 91.0168 53.9748C91.0781 54.0905 91.1632 54.1824 91.2721 54.2505C91.381 54.3186 91.5069 54.3526 91.6499 54.3526ZM95.5134 54.8223C95.4386 54.8223 95.3841 54.807 95.3501 54.7763C95.3194 54.7457 95.3007 54.6981 95.2939 54.6334L95.3143 54.3781C95.2803 54.4326 95.2275 54.4955 95.1561 54.567C95.0846 54.6351 94.991 54.6964 94.8753 54.7508C94.7596 54.8019 94.6183 54.8274 94.4515 54.8274C94.2882 54.8274 94.135 54.7951 93.9921 54.7304C93.8525 54.6657 93.7283 54.5755 93.6194 54.4598C93.5139 54.3441 93.4305 54.2114 93.3692 54.0616C93.3114 53.9118 93.2824 53.7519 93.2824 53.5817C93.2824 53.4149 93.3114 53.2584 93.3692 53.112C93.4305 52.9623 93.5156 52.8312 93.6245 52.7189C93.7334 52.6066 93.8576 52.5181 93.9972 52.4534C94.1401 52.3888 94.2916 52.3564 94.4515 52.3564C94.6013 52.3564 94.7289 52.3769 94.8344 52.4177C94.9399 52.4551 95.0301 52.5062 95.105 52.5709C95.1833 52.6321 95.2514 52.7019 95.3092 52.7802L95.299 52.5658C95.2956 52.4909 95.3109 52.4381 95.345 52.4075C95.3824 52.3735 95.4403 52.3564 95.5185 52.3564C95.5832 52.3564 95.6292 52.3667 95.6564 52.3871C95.687 52.4075 95.7074 52.4364 95.7176 52.4739C95.7279 52.5113 95.733 52.5572 95.733 52.6117V54.5823C95.733 54.63 95.7279 54.6725 95.7176 54.71C95.7074 54.7474 95.687 54.7746 95.6564 54.7917C95.6258 54.8121 95.5781 54.8223 95.5134 54.8223ZM94.5281 54.3985C94.6643 54.3985 94.7885 54.3628 94.9008 54.2913C95.0165 54.2199 95.1067 54.1246 95.1714 54.0054C95.2395 53.8829 95.2735 53.7434 95.2735 53.5868C95.2735 53.4268 95.2378 53.2873 95.1663 53.1682C95.0982 53.0457 95.0063 52.9504 94.8906 52.8823C94.7783 52.8108 94.6541 52.7751 94.5179 52.7751C94.3579 52.7751 94.2184 52.8125 94.0993 52.8874C93.9836 52.9589 93.8917 53.0559 93.8236 53.1784C93.7555 53.3009 93.7215 53.4405 93.7215 53.597C93.7215 53.7502 93.7555 53.888 93.8236 54.0105C93.8917 54.1297 93.9853 54.225 94.1044 54.2964C94.2269 54.3645 94.3682 54.3985 94.5281 54.3985ZM97.5056 54.8274C97.3456 54.8274 97.2095 54.8121 97.0972 54.7814C96.9883 54.7508 96.8981 54.7032 96.8266 54.6385C96.7551 54.5738 96.7041 54.4904 96.6734 54.3883C96.6428 54.2828 96.6275 54.1535 96.6275 54.0003V51.7438C96.6275 51.6962 96.6326 51.6553 96.6428 51.6213C96.653 51.5872 96.6734 51.5617 96.7041 51.5447C96.7347 51.5243 96.7824 51.5141 96.847 51.5141C96.9117 51.5141 96.961 51.5243 96.9951 51.5447C97.0291 51.5617 97.0512 51.5872 97.0614 51.6213C97.0717 51.6519 97.0768 51.6911 97.0768 51.7387V54.0003C97.0768 54.0888 97.0836 54.1603 97.0972 54.2148C97.1142 54.2658 97.138 54.305 97.1687 54.3322C97.2027 54.3594 97.2469 54.3764 97.3014 54.3832C97.3559 54.39 97.4222 54.3934 97.5005 54.3934C97.555 54.3934 97.5992 54.3985 97.6332 54.4088C97.6673 54.419 97.6928 54.4394 97.7098 54.47C97.7268 54.5007 97.7353 54.5466 97.7353 54.6079C97.7353 54.6725 97.7251 54.7219 97.7047 54.7559C97.6877 54.7865 97.6605 54.8053 97.623 54.8121C97.589 54.8223 97.5499 54.8274 97.5056 54.8274ZM96.362 52.4126L96.8521 52.4177L97.5618 52.4075C97.6094 52.4075 97.6503 52.4126 97.6843 52.4228C97.7183 52.4296 97.7439 52.45 97.7609 52.4841C97.7813 52.5147 97.7915 52.5624 97.7915 52.627C97.7915 52.6917 97.783 52.741 97.766 52.7751C97.749 52.8057 97.7234 52.8261 97.6894 52.8363C97.6554 52.8465 97.6145 52.8517 97.5669 52.8517L96.8674 52.8414L96.3518 52.8465C96.2803 52.8465 96.231 52.8295 96.2038 52.7955C96.1799 52.7615 96.168 52.7053 96.168 52.627C96.168 52.5521 96.1833 52.4977 96.214 52.4637C96.2446 52.4296 96.294 52.4126 96.362 52.4126ZM98.5112 54.8274C98.4466 54.8274 98.3972 54.8172 98.3632 54.7968C98.3325 54.7797 98.3121 54.7542 98.3019 54.7202C98.2917 54.6861 98.2866 54.6453 98.2866 54.5977V52.5811C98.2866 52.5334 98.2917 52.4926 98.3019 52.4585C98.3121 52.4245 98.3325 52.399 98.3632 52.382C98.3972 52.3649 98.4483 52.3564 98.5163 52.3564C98.581 52.3564 98.6286 52.3667 98.6593 52.3871C98.6899 52.4041 98.7103 52.4296 98.7205 52.4637C98.7308 52.4977 98.7359 52.5402 98.7359 52.5913V54.6028C98.7359 54.6504 98.7308 54.6912 98.7205 54.7253C98.7103 54.7593 98.6882 54.7848 98.6542 54.8019C98.6235 54.8189 98.5759 54.8274 98.5112 54.8274ZM98.5112 51.7438C98.4363 51.7438 98.3802 51.7336 98.3428 51.7132C98.3053 51.6894 98.2798 51.657 98.2662 51.6162C98.256 51.5753 98.2509 51.5277 98.2509 51.4732C98.2509 51.4188 98.2577 51.3728 98.2713 51.3354C98.2849 51.2945 98.3104 51.2656 98.3479 51.2486C98.3853 51.2282 98.4415 51.218 98.5163 51.218C98.5878 51.218 98.6423 51.2282 98.6797 51.2486C98.7171 51.269 98.741 51.2997 98.7512 51.3405C98.7648 51.3813 98.7716 51.429 98.7716 51.4834C98.7716 51.5379 98.7648 51.5855 98.7512 51.6264C98.741 51.6638 98.7171 51.6928 98.6797 51.7132C98.6423 51.7336 98.5861 51.7438 98.5112 51.7438ZM100.449 54.8376C100.391 54.8376 100.344 54.8291 100.306 54.8121C100.272 54.7951 100.243 54.7644 100.22 54.7202L99.2751 52.6628C99.2377 52.5811 99.2292 52.5198 99.2496 52.479C99.27 52.4347 99.3177 52.3939 99.3926 52.3564C99.4606 52.3224 99.5185 52.3122 99.5661 52.3258C99.6138 52.336 99.6546 52.3803 99.6887 52.4585L100.449 54.2709L101.195 52.5096C101.232 52.4313 101.273 52.3752 101.317 52.3411C101.361 52.3071 101.431 52.3139 101.527 52.3615C101.618 52.4058 101.664 52.4568 101.664 52.5147C101.664 52.5692 101.649 52.6287 101.618 52.6934L100.679 54.7151C100.662 54.7559 100.635 54.7865 100.597 54.807C100.56 54.8274 100.511 54.8376 100.449 54.8376ZM103.154 54.8529C102.95 54.8529 102.768 54.8189 102.608 54.7508C102.448 54.6827 102.312 54.5908 102.2 54.4751C102.091 54.356 102.007 54.2199 101.949 54.0667C101.892 53.9135 101.863 53.7485 101.863 53.5715C101.863 53.3367 101.917 53.1273 102.026 52.9435C102.135 52.7598 102.285 52.6151 102.475 52.5096C102.669 52.4007 102.891 52.3462 103.139 52.3462C103.309 52.3462 103.461 52.3735 103.593 52.4279C103.729 52.479 103.845 52.5487 103.941 52.6372C104.036 52.7257 104.109 52.8244 104.16 52.9333C104.211 53.0422 104.237 53.1512 104.237 53.2601C104.237 53.4337 104.196 53.5562 104.114 53.6277C104.032 53.6957 103.932 53.7298 103.813 53.7298H102.337C102.334 53.8795 102.373 54.0088 102.455 54.1178C102.54 54.2233 102.645 54.305 102.771 54.3628C102.901 54.4207 103.03 54.4496 103.159 54.4496C103.255 54.4496 103.336 54.4445 103.404 54.4343C103.473 54.4241 103.532 54.4105 103.583 54.3934C103.634 54.3764 103.678 54.3594 103.716 54.3424C103.753 54.3254 103.786 54.3084 103.813 54.2913C103.844 54.2743 103.872 54.2624 103.9 54.2556C103.93 54.2488 103.959 54.2522 103.986 54.2658C104.017 54.276 104.041 54.2981 104.058 54.3322C104.078 54.3594 104.092 54.3849 104.099 54.4088C104.106 54.4326 104.109 54.4581 104.109 54.4853C104.109 54.533 104.068 54.5857 103.986 54.6436C103.905 54.7015 103.791 54.7508 103.644 54.7917C103.501 54.8325 103.338 54.8529 103.154 54.8529ZM102.337 53.4285H103.619C103.684 53.4285 103.731 53.42 103.762 53.403C103.796 53.386 103.813 53.3401 103.813 53.2652C103.813 53.1699 103.784 53.0848 103.726 53.0099C103.668 52.9316 103.588 52.8687 103.486 52.821C103.387 52.7734 103.273 52.7495 103.144 52.7495C102.994 52.7495 102.856 52.7802 102.731 52.8414C102.608 52.8993 102.511 52.9793 102.44 53.0814C102.368 53.1835 102.334 53.2992 102.337 53.4285ZM106.335 54.8274C106.27 54.8274 106.221 54.8172 106.187 54.7968C106.153 54.7797 106.13 54.7542 106.12 54.7202C106.113 54.6827 106.11 54.6402 106.11 54.5925V51.4885C106.11 51.4443 106.115 51.4069 106.125 51.3762C106.139 51.3422 106.161 51.315 106.192 51.2945C106.226 51.2741 106.275 51.2639 106.34 51.2639H107.468C107.635 51.2639 107.786 51.2894 107.922 51.3405C108.062 51.3881 108.183 51.4596 108.285 51.5549C108.387 51.6502 108.465 51.771 108.52 51.9174C108.578 52.0603 108.606 52.2271 108.606 52.4177C108.606 52.5368 108.588 52.6611 108.55 52.7904C108.513 52.9163 108.455 53.0354 108.377 53.1478C108.302 53.2601 108.205 53.3537 108.086 53.4285C107.967 53.5034 107.822 53.546 107.652 53.5562H106.569V54.5977C106.569 54.6453 106.563 54.6861 106.549 54.7202C106.539 54.7542 106.517 54.7797 106.483 54.7968C106.452 54.8172 106.403 54.8274 106.335 54.8274ZM108.525 54.7712C108.453 54.8189 108.392 54.8342 108.341 54.8172C108.293 54.8002 108.247 54.7593 108.203 54.6947L107.386 53.3877L107.892 53.3111L108.596 54.4343C108.63 54.4887 108.651 54.5347 108.658 54.5721C108.668 54.6096 108.661 54.6436 108.637 54.6742C108.617 54.7049 108.579 54.7372 108.525 54.7712ZM106.569 53.1069H107.58C107.659 53.1069 107.732 53.0933 107.8 53.0661C107.868 53.0354 107.927 52.9912 107.979 52.9333C108.03 52.8755 108.07 52.804 108.101 52.7189C108.132 52.6338 108.147 52.5317 108.147 52.4126C108.147 52.2662 108.12 52.142 108.065 52.0399C108.014 51.9378 107.938 51.8612 107.836 51.8102C107.733 51.7557 107.608 51.7285 107.458 51.7285H106.569V53.1069ZM110.294 54.8529C110.089 54.8529 109.907 54.8189 109.747 54.7508C109.587 54.6827 109.451 54.5908 109.339 54.4751C109.23 54.356 109.147 54.2199 109.089 54.0667C109.031 53.9135 109.002 53.7485 109.002 53.5715C109.002 53.3367 109.057 53.1273 109.165 52.9435C109.274 52.7598 109.424 52.6151 109.615 52.5096C109.809 52.4007 110.03 52.3462 110.278 52.3462C110.449 52.3462 110.6 52.3735 110.733 52.4279C110.869 52.479 110.985 52.5487 111.08 52.6372C111.175 52.7257 111.248 52.8244 111.299 52.9333C111.35 53.0422 111.376 53.1512 111.376 53.2601C111.376 53.4337 111.335 53.5562 111.253 53.6277C111.172 53.6957 111.071 53.7298 110.952 53.7298H109.477C109.473 53.8795 109.513 54.0088 109.594 54.1178C109.679 54.2233 109.785 54.305 109.911 54.3628C110.04 54.4207 110.169 54.4496 110.299 54.4496C110.394 54.4496 110.476 54.4445 110.544 54.4343C110.612 54.4241 110.671 54.4105 110.723 54.3934C110.774 54.3764 110.818 54.3594 110.855 54.3424C110.893 54.3254 110.925 54.3084 110.952 54.2913C110.983 54.2743 111.012 54.2624 111.039 54.2556C111.07 54.2488 111.099 54.2522 111.126 54.2658C111.156 54.276 111.18 54.2981 111.197 54.3322C111.218 54.3594 111.231 54.3849 111.238 54.4088C111.245 54.4326 111.248 54.4581 111.248 54.4853C111.248 54.533 111.208 54.5857 111.126 54.6436C111.044 54.7015 110.93 54.7508 110.784 54.7917C110.641 54.8325 110.477 54.8529 110.294 54.8529ZM109.477 53.4285H110.758C110.823 53.4285 110.871 53.42 110.901 53.403C110.935 53.386 110.952 53.3401 110.952 53.2652C110.952 53.1699 110.923 53.0848 110.865 53.0099C110.808 52.9316 110.728 52.8687 110.626 52.821C110.527 52.7734 110.413 52.7495 110.283 52.7495C110.134 52.7495 109.996 52.7802 109.87 52.8414C109.747 52.8993 109.65 52.9793 109.579 53.0814C109.507 53.1835 109.473 53.2992 109.477 53.4285ZM113.138 54.807C112.971 54.807 112.819 54.7763 112.683 54.7151C112.547 54.6538 112.431 54.5687 112.336 54.4598C112.241 54.3475 112.166 54.2165 112.111 54.0667C112.06 53.917 112.036 53.7519 112.04 53.5715C112.04 53.3945 112.065 53.2311 112.116 53.0814C112.168 52.9316 112.241 52.8023 112.336 52.6934C112.435 52.5811 112.55 52.496 112.683 52.4381C112.819 52.3769 112.971 52.3462 113.138 52.3462C113.294 52.3462 113.44 52.3769 113.577 52.4381C113.716 52.4994 113.837 52.5862 113.939 52.6985C114.045 52.8074 114.126 52.9384 114.184 53.0916C114.245 53.2448 114.276 53.4098 114.276 53.5868C114.276 53.7638 114.245 53.9272 114.184 54.0769C114.126 54.2267 114.045 54.356 113.939 54.4649C113.837 54.5738 113.716 54.6589 113.577 54.7202C113.44 54.778 113.294 54.807 113.138 54.807ZM112.076 55.8331C112.011 55.8331 111.962 55.8229 111.928 55.8025C111.897 55.7855 111.875 55.76 111.861 55.7259C111.851 55.6919 111.846 55.651 111.846 55.6034V52.5862C111.846 52.5385 111.851 52.4977 111.861 52.4637C111.871 52.4296 111.892 52.4041 111.922 52.3871C111.957 52.3667 112.006 52.3564 112.071 52.3564C112.145 52.3564 112.2 52.3684 112.234 52.3922C112.271 52.416 112.293 52.4585 112.3 52.5198V55.5983C112.304 55.6459 112.3 55.6868 112.29 55.7208C112.28 55.7582 112.258 55.7855 112.224 55.8025C112.193 55.8229 112.144 55.8331 112.076 55.8331ZM113.071 54.3883C113.214 54.3883 113.343 54.3543 113.459 54.2862C113.575 54.2148 113.665 54.1178 113.73 53.9952C113.798 53.8727 113.832 53.7332 113.832 53.5766C113.832 53.4166 113.798 53.2771 113.73 53.158C113.665 53.0388 113.575 52.9469 113.459 52.8823C113.347 52.8142 113.218 52.7802 113.071 52.7802C112.928 52.7802 112.799 52.8142 112.683 52.8823C112.571 52.9504 112.481 53.0439 112.413 53.1631C112.348 53.2822 112.316 53.42 112.316 53.5766C112.316 53.7332 112.348 53.8727 112.413 53.9952C112.481 54.1178 112.571 54.2148 112.683 54.2862C112.799 54.3543 112.928 54.3883 113.071 54.3883ZM115.936 54.858C115.77 54.858 115.61 54.8257 115.456 54.761C115.307 54.6964 115.172 54.6079 115.053 54.4955C114.934 54.3798 114.84 54.2454 114.772 54.0922C114.704 53.9391 114.67 53.7723 114.67 53.5919C114.67 53.4149 114.703 53.2516 114.767 53.1018C114.832 52.9487 114.922 52.8142 115.038 52.6985C115.154 52.5828 115.286 52.4926 115.436 52.4279C115.589 52.3598 115.753 52.3258 115.926 52.3258C116.161 52.3258 116.372 52.382 116.559 52.4943C116.75 52.6032 116.901 52.7529 117.014 52.9435C117.126 53.1341 117.182 53.3486 117.182 53.5868C117.182 53.774 117.148 53.9459 117.08 54.1024C117.012 54.2556 116.92 54.3883 116.804 54.5007C116.689 54.613 116.556 54.7015 116.406 54.7661C116.256 54.8274 116.1 54.858 115.936 54.858ZM115.926 54.4139C116.069 54.4139 116.202 54.3781 116.324 54.3067C116.447 54.2352 116.546 54.1365 116.62 54.0105C116.695 53.8846 116.733 53.7417 116.733 53.5817C116.733 53.4217 116.697 53.2805 116.626 53.158C116.557 53.0354 116.462 52.9401 116.34 52.8721C116.217 52.804 116.078 52.77 115.921 52.77C115.771 52.77 115.635 52.8057 115.513 52.8772C115.393 52.9487 115.296 53.0457 115.222 53.1682C115.15 53.2907 115.114 53.4302 115.114 53.5868C115.114 53.7502 115.152 53.8948 115.227 54.0208C115.302 54.1433 115.4 54.2403 115.523 54.3118C115.649 54.3798 115.783 54.4139 115.926 54.4139ZM117.9 54.8274C117.835 54.8274 117.786 54.8172 117.752 54.7968C117.721 54.7797 117.701 54.7542 117.69 54.7202C117.684 54.6827 117.68 54.6402 117.68 54.5925V52.5811C117.68 52.53 117.685 52.4875 117.695 52.4534C117.706 52.4194 117.726 52.3956 117.757 52.382C117.787 52.3649 117.837 52.3564 117.905 52.3564C117.966 52.3564 118.012 52.3649 118.043 52.382C118.077 52.3956 118.099 52.4177 118.109 52.4483C118.123 52.4756 118.129 52.5079 118.129 52.5453L118.109 52.6985C118.133 52.6542 118.16 52.61 118.191 52.5658C118.225 52.5215 118.266 52.4824 118.313 52.4483C118.364 52.4109 118.424 52.3803 118.492 52.3564C118.563 52.3326 118.65 52.3207 118.752 52.3207C118.803 52.3207 118.851 52.3258 118.895 52.336C118.943 52.3428 118.987 52.3547 119.028 52.3718C119.072 52.3888 119.11 52.4092 119.14 52.433C119.171 52.4534 119.195 52.4773 119.212 52.5045C119.232 52.5283 119.242 52.5572 119.242 52.5913C119.242 52.6662 119.219 52.7308 119.171 52.7853C119.123 52.8363 119.074 52.8619 119.023 52.8619C118.979 52.8619 118.946 52.8568 118.926 52.8465C118.905 52.8329 118.885 52.8193 118.865 52.8057C118.848 52.7921 118.822 52.7802 118.788 52.77C118.754 52.7564 118.699 52.7495 118.625 52.7495C118.574 52.7495 118.519 52.7598 118.461 52.7802C118.407 52.8006 118.354 52.8312 118.303 52.8721C118.252 52.9095 118.209 52.9589 118.175 53.0201C118.145 53.0814 118.129 53.1529 118.129 53.2345V54.6028C118.129 54.6504 118.124 54.6912 118.114 54.7253C118.104 54.7593 118.082 54.7848 118.048 54.8019C118.017 54.8189 117.968 54.8274 117.9 54.8274ZM120.813 54.8274C120.653 54.8274 120.517 54.8121 120.405 54.7814C120.296 54.7508 120.206 54.7032 120.134 54.6385C120.063 54.5738 120.012 54.4904 119.981 54.3883C119.951 54.2828 119.935 54.1535 119.935 54.0003V51.7438C119.935 51.6962 119.94 51.6553 119.951 51.6213C119.961 51.5872 119.981 51.5617 120.012 51.5447C120.042 51.5243 120.09 51.5141 120.155 51.5141C120.219 51.5141 120.269 51.5243 120.303 51.5447C120.337 51.5617 120.359 51.5872 120.369 51.6213C120.379 51.6519 120.384 51.6911 120.384 51.7387V54.0003C120.384 54.0888 120.391 54.1603 120.405 54.2148C120.422 54.2658 120.446 54.305 120.476 54.3322C120.51 54.3594 120.555 54.3764 120.609 54.3832C120.664 54.39 120.73 54.3934 120.808 54.3934C120.863 54.3934 120.907 54.3985 120.941 54.4088C120.975 54.419 121.001 54.4394 121.018 54.47C121.035 54.5007 121.043 54.5466 121.043 54.6079C121.043 54.6725 121.033 54.7219 121.012 54.7559C120.995 54.7865 120.968 54.8053 120.931 54.8121C120.897 54.8223 120.858 54.8274 120.813 54.8274ZM119.67 52.4126L120.16 52.4177L120.869 52.4075C120.917 52.4075 120.958 52.4126 120.992 52.4228C121.026 52.4296 121.052 52.45 121.069 52.4841C121.089 52.5147 121.099 52.5624 121.099 52.627C121.099 52.6917 121.091 52.741 121.074 52.7751C121.057 52.8057 121.031 52.8261 120.997 52.8363C120.963 52.8465 120.922 52.8517 120.875 52.8517L120.175 52.8414L119.66 52.8465C119.588 52.8465 119.539 52.8295 119.511 52.7955C119.488 52.7615 119.476 52.7053 119.476 52.627C119.476 52.5521 119.491 52.4977 119.522 52.4637C119.552 52.4296 119.602 52.4126 119.67 52.4126ZM122.391 54.8529C122.309 54.8529 122.224 54.8444 122.135 54.8274C122.047 54.8104 121.96 54.7865 121.875 54.7559C121.793 54.7219 121.72 54.6827 121.656 54.6385C121.594 54.5942 121.548 54.5449 121.518 54.4904C121.501 54.4564 121.491 54.4258 121.487 54.3985C121.484 54.3679 121.489 54.339 121.502 54.3118C121.516 54.2845 121.536 54.2573 121.564 54.2301C121.598 54.1892 121.632 54.1705 121.666 54.1739C121.7 54.1739 121.742 54.196 121.793 54.2403C121.831 54.2641 121.875 54.2913 121.926 54.322C121.977 54.3492 122.03 54.3747 122.084 54.3985C122.139 54.419 122.193 54.4377 122.248 54.4547C122.306 54.4683 122.362 54.4751 122.416 54.4751C122.573 54.4751 122.699 54.4462 122.794 54.3883C122.889 54.3271 122.937 54.2471 122.937 54.1484C122.937 54.0905 122.925 54.0412 122.901 54.0003C122.877 53.9595 122.845 53.9255 122.804 53.8982C122.763 53.8676 122.717 53.8421 122.666 53.8217C122.615 53.8012 122.558 53.7825 122.493 53.7655C122.432 53.7451 122.37 53.7264 122.309 53.7093C122.217 53.6855 122.127 53.6583 122.038 53.6277C121.95 53.597 121.87 53.5579 121.799 53.5102C121.727 53.4592 121.669 53.3962 121.625 53.3213C121.581 53.2431 121.559 53.1444 121.559 53.0252C121.559 52.8857 121.594 52.7649 121.666 52.6628C121.737 52.5607 121.838 52.4824 121.967 52.4279C122.096 52.3701 122.248 52.3411 122.421 52.3411C122.496 52.3411 122.566 52.3462 122.631 52.3564C122.695 52.3667 122.757 52.3837 122.814 52.4075C122.876 52.4279 122.934 52.4534 122.988 52.4841C123.043 52.5113 123.095 52.5453 123.146 52.5862C123.208 52.627 123.24 52.6713 123.243 52.7189C123.247 52.7666 123.228 52.8159 123.187 52.867C123.157 52.9112 123.123 52.9401 123.085 52.9538C123.048 52.964 123.01 52.9538 122.973 52.9231C122.918 52.8823 122.86 52.8465 122.799 52.8159C122.738 52.7853 122.675 52.7598 122.61 52.7393C122.546 52.7189 122.479 52.7087 122.411 52.7087C122.326 52.7087 122.249 52.7223 122.181 52.7495C122.117 52.7734 122.066 52.8108 122.028 52.8619C121.994 52.9095 121.977 52.964 121.977 53.0252C121.977 53.0797 121.991 53.1239 122.018 53.158C122.049 53.192 122.086 53.2209 122.13 53.2448C122.178 53.2686 122.232 53.2907 122.294 53.3111C122.358 53.3281 122.425 53.3452 122.493 53.3622C122.592 53.386 122.692 53.4149 122.794 53.449C122.9 53.4796 122.993 53.5221 123.075 53.5766C123.16 53.6277 123.228 53.6974 123.279 53.7859C123.334 53.871 123.361 53.985 123.361 54.128C123.361 54.3526 123.272 54.5296 123.095 54.6589C122.918 54.7882 122.683 54.8529 122.391 54.8529ZM126.153 54.8376C125.921 54.8376 125.724 54.8019 125.561 54.7304C125.397 54.6555 125.271 54.5466 125.183 54.4037C125.098 54.2607 125.055 54.0888 125.055 53.888C125.055 53.7791 125.081 53.6702 125.132 53.5613C125.183 53.449 125.256 53.3367 125.351 53.2243C125.45 53.1086 125.567 52.9963 125.704 52.8874C125.656 52.7887 125.612 52.69 125.571 52.5913C125.533 52.4892 125.504 52.3905 125.484 52.2952C125.464 52.1965 125.453 52.1029 125.453 52.0144C125.453 51.8408 125.492 51.6911 125.571 51.5651C125.649 51.4392 125.76 51.3422 125.903 51.2741C126.046 51.2061 126.216 51.172 126.413 51.172C126.583 51.172 126.73 51.2044 126.852 51.269C126.978 51.3303 127.075 51.4171 127.143 51.5294C127.211 51.6417 127.245 51.7761 127.245 51.9327C127.245 52.0076 127.221 52.0876 127.174 52.1727C127.126 52.2543 127.058 52.3411 126.97 52.433C126.881 52.5215 126.779 52.6151 126.663 52.7138C126.548 52.8091 126.422 52.9095 126.286 53.015C126.377 53.1512 126.471 53.2805 126.566 53.403C126.665 53.5221 126.765 53.6311 126.868 53.7298C126.973 53.8251 127.073 53.9067 127.169 53.9748C127.301 53.8659 127.393 53.7655 127.444 53.6736C127.495 53.5783 127.531 53.483 127.552 53.3877C127.562 53.3469 127.586 53.3128 127.623 53.2856C127.661 53.255 127.723 53.2397 127.812 53.2397C127.87 53.2397 127.912 53.2499 127.94 53.2703C127.97 53.2873 127.991 53.3111 128.001 53.3418C128.014 53.369 128.02 53.3962 128.016 53.4234C128.009 53.5528 127.963 53.6821 127.878 53.8114C127.797 53.9408 127.683 54.0718 127.536 54.2045C127.591 54.2216 127.638 54.2369 127.679 54.2505C127.723 54.2641 127.773 54.2743 127.827 54.2811C127.882 54.2845 127.952 54.2862 128.037 54.2862C128.115 54.2862 128.169 54.3032 128.2 54.3373C128.234 54.3679 128.251 54.4241 128.251 54.5058C128.251 54.6045 128.236 54.6708 128.205 54.7049C128.174 54.7389 128.117 54.7559 128.032 54.7559C127.936 54.7559 127.838 54.7491 127.735 54.7355C127.637 54.7219 127.538 54.6981 127.439 54.664C127.341 54.63 127.238 54.584 127.133 54.5262C127.041 54.5908 126.941 54.647 126.832 54.6947C126.723 54.7423 126.611 54.778 126.495 54.8019C126.383 54.8257 126.268 54.8376 126.153 54.8376ZM126.153 54.4037C126.268 54.4037 126.379 54.3883 126.485 54.3577C126.59 54.3271 126.679 54.2879 126.75 54.2403C126.692 54.1858 126.628 54.1246 126.556 54.0565C126.485 53.985 126.413 53.9084 126.342 53.8268C126.27 53.7451 126.199 53.6583 126.127 53.5664C126.056 53.4745 125.988 53.3809 125.923 53.2856C125.852 53.3537 125.79 53.4149 125.739 53.4694C125.688 53.5204 125.647 53.5681 125.617 53.6123C125.586 53.6532 125.564 53.6974 125.55 53.7451C125.537 53.7893 125.53 53.837 125.53 53.888C125.53 53.9935 125.555 54.0854 125.607 54.1637C125.658 54.242 125.729 54.3015 125.821 54.3424C125.916 54.3832 126.027 54.4037 126.153 54.4037ZM126.076 52.6525C126.189 52.5675 126.289 52.4909 126.377 52.4228C126.469 52.3513 126.546 52.285 126.607 52.2237C126.668 52.1624 126.716 52.1063 126.75 52.0552C126.784 52.0042 126.801 51.9599 126.801 51.9225C126.801 51.8102 126.765 51.72 126.694 51.6519C126.622 51.5804 126.527 51.5447 126.408 51.5447C126.303 51.5447 126.211 51.5634 126.132 51.6009C126.054 51.6349 125.993 51.6842 125.949 51.7489C125.908 51.8136 125.887 51.8919 125.887 51.9838C125.887 52.0416 125.894 52.1029 125.908 52.1675C125.921 52.2288 125.942 52.2986 125.969 52.3769C125.996 52.4551 126.032 52.547 126.076 52.6525ZM130.374 54.8274C130.306 54.8274 130.255 54.8172 130.221 54.7968C130.19 54.7797 130.17 54.7542 130.159 54.7202C130.149 54.6827 130.144 54.6402 130.144 54.5925V51.4937C130.144 51.446 130.149 51.4052 130.159 51.3711C130.173 51.3371 130.195 51.3116 130.226 51.2945C130.26 51.2741 130.311 51.2639 130.379 51.2639C130.447 51.2639 130.496 51.2741 130.527 51.2945C130.561 51.3116 130.581 51.3371 130.588 51.3711C130.598 51.4052 130.604 51.4477 130.604 51.4988V54.5977C130.604 54.6453 130.598 54.6861 130.588 54.7202C130.578 54.7542 130.556 54.7797 130.522 54.7968C130.491 54.8172 130.442 54.8274 130.374 54.8274ZM131.47 54.8274C131.406 54.8274 131.358 54.8172 131.327 54.7968C131.297 54.7763 131.276 54.7491 131.266 54.7151C131.256 54.681 131.251 54.6402 131.251 54.5925V52.5709C131.251 52.5232 131.256 52.4841 131.266 52.4534C131.276 52.4228 131.297 52.399 131.327 52.382C131.361 52.3649 131.411 52.3564 131.475 52.3564C131.55 52.3564 131.603 52.3718 131.634 52.4024C131.668 52.4296 131.685 52.479 131.685 52.5504L131.664 52.77C131.688 52.7189 131.724 52.6679 131.772 52.6168C131.819 52.5658 131.875 52.5198 131.94 52.479C132.008 52.4381 132.08 52.4058 132.154 52.382C132.229 52.3581 132.306 52.3462 132.384 52.3462C132.503 52.3462 132.609 52.3684 132.701 52.4126C132.796 52.4534 132.881 52.513 132.956 52.5913C133.031 52.6696 133.094 52.7666 133.145 52.8823C133.213 52.77 133.284 52.6747 133.359 52.5964C133.438 52.5147 133.526 52.4534 133.625 52.4126C133.724 52.3684 133.834 52.3462 133.957 52.3462C134.151 52.3462 134.312 52.3956 134.442 52.4943C134.574 52.5896 134.673 52.7257 134.738 52.9027C134.806 53.0763 134.84 53.2856 134.84 53.5307V54.5977C134.84 54.6453 134.835 54.6861 134.825 54.7202C134.818 54.7542 134.797 54.7797 134.763 54.7968C134.733 54.8172 134.683 54.8274 134.615 54.8274C134.551 54.8274 134.501 54.8172 134.467 54.7968C134.437 54.7763 134.416 54.7491 134.406 54.7151C134.396 54.681 134.391 54.6402 134.391 54.5925V53.5255C134.391 53.3724 134.372 53.2414 134.334 53.1324C134.3 53.0201 134.246 52.9333 134.171 52.8721C134.1 52.8108 134.006 52.7802 133.89 52.7802C133.768 52.7802 133.659 52.8108 133.564 52.8721C133.472 52.9299 133.4 53.015 133.349 53.1273C133.298 53.2397 133.273 53.3724 133.273 53.5255V54.6028C133.273 54.6538 133.262 54.6981 133.242 54.7355C133.221 54.7729 133.191 54.7985 133.15 54.8121C133.109 54.8291 133.06 54.8325 133.002 54.8223C132.948 54.8155 132.907 54.8019 132.879 54.7814C132.852 54.761 132.835 54.7355 132.828 54.7049C132.822 54.6708 132.818 54.6334 132.818 54.5925V53.5255C132.818 53.3724 132.799 53.2414 132.762 53.1324C132.728 53.0201 132.674 52.9333 132.599 52.8721C132.527 52.8108 132.434 52.7802 132.318 52.7802C132.195 52.7802 132.086 52.8125 131.991 52.8772C131.899 52.9384 131.828 53.0252 131.777 53.1375C131.726 53.2499 131.7 53.3792 131.7 53.5255V54.5977C131.7 54.6453 131.695 54.6861 131.685 54.7202C131.675 54.7542 131.652 54.7797 131.618 54.7968C131.588 54.8172 131.538 54.8274 131.47 54.8274ZM136.719 54.807C136.553 54.807 136.401 54.7763 136.265 54.7151C136.129 54.6538 136.013 54.5687 135.918 54.4598C135.823 54.3475 135.748 54.2165 135.693 54.0667C135.642 53.917 135.618 53.7519 135.622 53.5715C135.622 53.3945 135.647 53.2311 135.698 53.0814C135.749 52.9316 135.823 52.8023 135.918 52.6934C136.017 52.5811 136.132 52.496 136.265 52.4381C136.401 52.3769 136.553 52.3462 136.719 52.3462C136.876 52.3462 137.022 52.3769 137.159 52.4381C137.298 52.4994 137.419 52.5862 137.521 52.6985C137.627 52.8074 137.708 52.9384 137.766 53.0916C137.827 53.2448 137.858 53.4098 137.858 53.5868C137.858 53.7638 137.827 53.9272 137.766 54.0769C137.708 54.2267 137.627 54.356 137.521 54.4649C137.419 54.5738 137.298 54.6589 137.159 54.7202C137.022 54.778 136.876 54.807 136.719 54.807ZM135.658 55.8331C135.593 55.8331 135.544 55.8229 135.51 55.8025C135.479 55.7855 135.457 55.76 135.443 55.7259C135.433 55.6919 135.428 55.651 135.428 55.6034V52.5862C135.428 52.5385 135.433 52.4977 135.443 52.4637C135.453 52.4296 135.474 52.4041 135.504 52.3871C135.538 52.3667 135.588 52.3564 135.652 52.3564C135.727 52.3564 135.782 52.3684 135.816 52.3922C135.853 52.416 135.875 52.4585 135.882 52.5198V55.5983C135.886 55.6459 135.882 55.6868 135.872 55.7208C135.862 55.7582 135.84 55.7855 135.806 55.8025C135.775 55.8229 135.726 55.8331 135.658 55.8331ZM136.653 54.3883C136.796 54.3883 136.925 54.3543 137.041 54.2862C137.157 54.2148 137.247 54.1178 137.312 53.9952C137.38 53.8727 137.414 53.7332 137.414 53.5766C137.414 53.4166 137.38 53.2771 137.312 53.158C137.247 53.0388 137.157 52.9469 137.041 52.8823C136.929 52.8142 136.799 52.7802 136.653 52.7802C136.51 52.7802 136.381 52.8142 136.265 52.8823C136.153 52.9504 136.063 53.0439 135.995 53.1631C135.93 53.2822 135.898 53.42 135.898 53.5766C135.898 53.7332 135.93 53.8727 135.995 53.9952C136.063 54.1178 136.153 54.2148 136.265 54.2862C136.381 54.3543 136.51 54.3883 136.653 54.3883ZM140.504 54.8223C140.429 54.8223 140.374 54.807 140.34 54.7763C140.31 54.7457 140.291 54.6981 140.284 54.6334L140.304 54.3781C140.27 54.4326 140.218 54.4955 140.146 54.567C140.075 54.6351 139.981 54.6964 139.865 54.7508C139.75 54.8019 139.608 54.8274 139.442 54.8274C139.278 54.8274 139.125 54.7951 138.982 54.7304C138.843 54.6657 138.718 54.5755 138.61 54.4598C138.504 54.3441 138.421 54.2114 138.359 54.0616C138.302 53.9118 138.273 53.7519 138.273 53.5817C138.273 53.4149 138.302 53.2584 138.359 53.112C138.421 52.9623 138.506 52.8312 138.615 52.7189C138.724 52.6066 138.848 52.5181 138.987 52.4534C139.13 52.3888 139.282 52.3564 139.442 52.3564C139.591 52.3564 139.719 52.3769 139.825 52.4177C139.93 52.4551 140.02 52.5062 140.095 52.5709C140.173 52.6321 140.242 52.7019 140.299 52.7802L140.289 52.5658C140.286 52.4909 140.301 52.4381 140.335 52.4075C140.373 52.3735 140.43 52.3564 140.509 52.3564C140.573 52.3564 140.619 52.3667 140.647 52.3871C140.677 52.4075 140.698 52.4364 140.708 52.4739C140.718 52.5113 140.723 52.5572 140.723 52.6117V54.5823C140.723 54.63 140.718 54.6725 140.708 54.71C140.698 54.7474 140.677 54.7746 140.647 54.7917C140.616 54.8121 140.568 54.8223 140.504 54.8223ZM139.518 54.3985C139.654 54.3985 139.779 54.3628 139.891 54.2913C140.007 54.2199 140.097 54.1246 140.162 54.0054C140.23 53.8829 140.264 53.7434 140.264 53.5868C140.264 53.4268 140.228 53.2873 140.156 53.1682C140.088 53.0457 139.996 52.9504 139.881 52.8823C139.768 52.8108 139.644 52.7751 139.508 52.7751C139.348 52.7751 139.209 52.8125 139.089 52.8874C138.974 52.9589 138.882 53.0559 138.814 53.1784C138.746 53.3009 138.712 53.4405 138.712 53.597C138.712 53.7502 138.746 53.888 138.814 54.0105C138.882 54.1297 138.975 54.225 139.095 54.2964C139.217 54.3645 139.358 54.3985 139.518 54.3985ZM142.496 54.8376C142.319 54.8376 142.152 54.8087 141.995 54.7508C141.842 54.693 141.706 54.6096 141.587 54.5007C141.471 54.3917 141.379 54.2624 141.311 54.1127C141.247 53.9595 141.214 53.7859 141.214 53.5919C141.214 53.3979 141.247 53.226 141.311 53.0763C141.379 52.9231 141.471 52.7921 141.587 52.6832C141.703 52.5743 141.837 52.4909 141.99 52.433C142.147 52.3752 142.312 52.3462 142.486 52.3462C142.601 52.3462 142.715 52.3649 142.828 52.4024C142.94 52.4364 143.039 52.4824 143.124 52.5402C143.212 52.5947 143.275 52.6525 143.313 52.7138C143.347 52.7581 143.37 52.7955 143.384 52.8261C143.401 52.8534 143.403 52.8857 143.389 52.9231C143.376 52.9504 143.357 52.9759 143.333 52.9997C143.309 53.0201 143.285 53.0371 143.262 53.0508C143.2 53.0984 143.139 53.1052 143.078 53.0712C143.04 53.0337 142.998 52.9997 142.95 52.9691C142.906 52.935 142.858 52.9044 142.807 52.8772C142.756 52.8499 142.703 52.8295 142.649 52.8159C142.598 52.7989 142.543 52.7904 142.486 52.7904C142.326 52.7904 142.184 52.8244 142.062 52.8925C141.939 52.9572 141.844 53.0508 141.776 53.1733C141.711 53.2924 141.679 53.4319 141.679 53.5919C141.679 53.7519 141.711 53.8914 141.776 54.0105C141.844 54.1297 141.938 54.2233 142.057 54.2913C142.179 54.3594 142.319 54.3934 142.475 54.3934C142.547 54.3934 142.615 54.3849 142.68 54.3679C142.748 54.3475 142.811 54.322 142.868 54.2913C142.926 54.2573 142.974 54.2216 143.011 54.1841C143.045 54.1603 143.074 54.1399 143.098 54.1229C143.122 54.1058 143.151 54.0973 143.185 54.0973C143.212 54.0973 143.241 54.1092 143.272 54.1331C143.302 54.1535 143.335 54.1858 143.369 54.2301C143.396 54.2607 143.411 54.293 143.415 54.3271C143.422 54.3611 143.416 54.3934 143.399 54.4241C143.382 54.4547 143.355 54.4853 143.318 54.516C143.263 54.5704 143.19 54.6232 143.098 54.6742C143.01 54.7219 142.913 54.761 142.807 54.7917C142.702 54.8223 142.598 54.8376 142.496 54.8376ZM145.038 54.8274C144.878 54.8274 144.742 54.8121 144.63 54.7814C144.521 54.7508 144.431 54.7032 144.359 54.6385C144.288 54.5738 144.237 54.4904 144.206 54.3883C144.176 54.2828 144.16 54.1535 144.16 54.0003V51.7438C144.16 51.6962 144.165 51.6553 144.176 51.6213C144.186 51.5872 144.206 51.5617 144.237 51.5447C144.268 51.5243 144.315 51.5141 144.38 51.5141C144.445 51.5141 144.494 51.5243 144.528 51.5447C144.562 51.5617 144.584 51.5872 144.594 51.6213C144.604 51.6519 144.61 51.6911 144.61 51.7387V54.0003C144.61 54.0888 144.616 54.1603 144.63 54.2148C144.647 54.2658 144.671 54.305 144.701 54.3322C144.736 54.3594 144.78 54.3764 144.834 54.3832C144.889 54.39 144.955 54.3934 145.033 54.3934C145.088 54.3934 145.132 54.3985 145.166 54.4088C145.2 54.419 145.226 54.4394 145.243 54.47C145.26 54.5007 145.268 54.5466 145.268 54.6079C145.268 54.6725 145.258 54.7219 145.238 54.7559C145.221 54.7865 145.193 54.8053 145.156 54.8121C145.122 54.8223 145.083 54.8274 145.038 54.8274ZM143.895 52.4126L144.385 52.4177L145.095 52.4075C145.142 52.4075 145.183 52.4126 145.217 52.4228C145.251 52.4296 145.277 52.45 145.294 52.4841C145.314 52.5147 145.324 52.5624 145.324 52.627C145.324 52.6917 145.316 52.741 145.299 52.7751C145.282 52.8057 145.256 52.8261 145.222 52.8363C145.188 52.8465 145.147 52.8517 145.1 52.8517L144.4 52.8414L143.885 52.8465C143.813 52.8465 143.764 52.8295 143.737 52.7955C143.713 52.7615 143.701 52.7053 143.701 52.627C143.701 52.5521 143.716 52.4977 143.747 52.4637C143.777 52.4296 143.827 52.4126 143.895 52.4126ZM147.325 54.8274C147.267 54.8274 147.221 54.8172 147.187 54.7968C147.157 54.7763 147.134 54.7491 147.121 54.7151C147.107 54.6776 147.1 54.6368 147.1 54.5925V51.4885C147.1 51.4443 147.105 51.4052 147.116 51.3711C147.129 51.3371 147.153 51.3099 147.187 51.2894C147.221 51.269 147.269 51.2588 147.33 51.2588L148.336 51.2639C148.588 51.2639 148.816 51.3065 149.02 51.3915C149.228 51.4732 149.405 51.5907 149.551 51.7438C149.697 51.897 149.81 52.0825 149.888 52.3003C149.966 52.5181 150.005 52.7598 150.005 53.0252C150.005 53.3009 149.966 53.5494 149.888 53.7706C149.81 53.9918 149.696 54.1807 149.546 54.3373C149.399 54.4938 149.222 54.6147 149.015 54.6998C148.807 54.7848 148.576 54.8274 148.321 54.8274H147.325ZM147.56 54.3628H148.336C148.584 54.3628 148.799 54.3101 148.979 54.2045C149.159 54.0956 149.299 53.9442 149.398 53.7502C149.496 53.5528 149.546 53.3196 149.546 53.0508C149.546 52.7785 149.496 52.5436 149.398 52.3462C149.299 52.1488 149.158 51.9974 148.974 51.8919C148.794 51.7829 148.579 51.7285 148.331 51.7285H147.56V54.3628ZM152.728 54.8223C152.653 54.8223 152.599 54.807 152.565 54.7763C152.534 54.7457 152.516 54.6981 152.509 54.6334L152.529 54.3781C152.495 54.4326 152.442 54.4955 152.371 54.567C152.299 54.6351 152.206 54.6964 152.09 54.7508C151.974 54.8019 151.833 54.8274 151.666 54.8274C151.503 54.8274 151.35 54.7951 151.207 54.7304C151.067 54.6657 150.943 54.5755 150.834 54.4598C150.729 54.3441 150.645 54.2114 150.584 54.0616C150.526 53.9118 150.497 53.7519 150.497 53.5817C150.497 53.4149 150.526 53.2584 150.584 53.112C150.645 52.9623 150.73 52.8312 150.839 52.7189C150.948 52.6066 151.072 52.5181 151.212 52.4534C151.355 52.3888 151.506 52.3564 151.666 52.3564C151.816 52.3564 151.944 52.3769 152.049 52.4177C152.155 52.4551 152.245 52.5062 152.32 52.5709C152.398 52.6321 152.466 52.7019 152.524 52.7802L152.514 52.5658C152.51 52.4909 152.526 52.4381 152.56 52.4075C152.597 52.3735 152.655 52.3564 152.733 52.3564C152.798 52.3564 152.844 52.3667 152.871 52.3871C152.902 52.4075 152.922 52.4364 152.933 52.4739C152.943 52.5113 152.948 52.5572 152.948 52.6117V54.5823C152.948 54.63 152.943 54.6725 152.933 54.71C152.922 54.7474 152.902 54.7746 152.871 54.7917C152.841 54.8121 152.793 54.8223 152.728 54.8223ZM151.743 54.3985C151.879 54.3985 152.003 54.3628 152.116 54.2913C152.231 54.2199 152.322 54.1246 152.386 54.0054C152.454 53.8829 152.488 53.7434 152.488 53.5868C152.488 53.4268 152.453 53.2873 152.381 53.1682C152.313 53.0457 152.221 52.9504 152.105 52.8823C151.993 52.8108 151.869 52.7751 151.733 52.7751C151.573 52.7751 151.433 52.8125 151.314 52.8874C151.198 52.9589 151.107 53.0559 151.038 53.1784C150.97 53.3009 150.936 53.4405 150.936 53.597C150.936 53.7502 150.97 53.888 151.038 54.0105C151.107 54.1297 151.2 54.225 151.319 54.2964C151.442 54.3645 151.583 54.3985 151.743 54.3985ZM154.72 54.8274C154.561 54.8274 154.424 54.8121 154.312 54.7814C154.203 54.7508 154.113 54.7032 154.041 54.6385C153.97 54.5738 153.919 54.4904 153.888 54.3883C153.858 54.2828 153.842 54.1535 153.842 54.0003V51.7438C153.842 51.6962 153.847 51.6553 153.858 51.6213C153.868 51.5872 153.888 51.5617 153.919 51.5447C153.95 51.5243 153.997 51.5141 154.062 51.5141C154.127 51.5141 154.176 51.5243 154.21 51.5447C154.244 51.5617 154.266 51.5872 154.276 51.6213C154.287 51.6519 154.292 51.6911 154.292 51.7387V54.0003C154.292 54.0888 154.298 54.1603 154.312 54.2148C154.329 54.2658 154.353 54.305 154.384 54.3322C154.418 54.3594 154.462 54.3764 154.516 54.3832C154.571 54.39 154.637 54.3934 154.715 54.3934C154.77 54.3934 154.814 54.3985 154.848 54.4088C154.882 54.419 154.908 54.4394 154.925 54.47C154.942 54.5007 154.95 54.5466 154.95 54.6079C154.95 54.6725 154.94 54.7219 154.92 54.7559C154.903 54.7865 154.875 54.8053 154.838 54.8121C154.804 54.8223 154.765 54.8274 154.72 54.8274ZM153.577 52.4126L154.067 52.4177L154.777 52.4075C154.824 52.4075 154.865 52.4126 154.899 52.4228C154.933 52.4296 154.959 52.45 154.976 52.4841C154.996 52.5147 155.006 52.5624 155.006 52.627C155.006 52.6917 154.998 52.741 154.981 52.7751C154.964 52.8057 154.938 52.8261 154.904 52.8363C154.87 52.8465 154.829 52.8517 154.782 52.8517L154.082 52.8414L153.567 52.8465C153.495 52.8465 153.446 52.8295 153.419 52.7955C153.395 52.7615 153.383 52.7053 153.383 52.627C153.383 52.5521 153.398 52.4977 153.429 52.4637C153.459 52.4296 153.509 52.4126 153.577 52.4126ZM157.579 54.8223C157.504 54.8223 157.45 54.807 157.416 54.7763C157.385 54.7457 157.367 54.6981 157.36 54.6334L157.38 54.3781C157.346 54.4326 157.293 54.4955 157.222 54.567C157.15 54.6351 157.057 54.6964 156.941 54.7508C156.825 54.8019 156.684 54.8274 156.517 54.8274C156.354 54.8274 156.201 54.7951 156.058 54.7304C155.918 54.6657 155.794 54.5755 155.685 54.4598C155.58 54.3441 155.496 54.2114 155.435 54.0616C155.377 53.9118 155.348 53.7519 155.348 53.5817C155.348 53.4149 155.377 53.2584 155.435 53.112C155.496 52.9623 155.581 52.8312 155.69 52.7189C155.799 52.6066 155.923 52.5181 156.063 52.4534C156.206 52.3888 156.357 52.3564 156.517 52.3564C156.667 52.3564 156.795 52.3769 156.9 52.4177C157.006 52.4551 157.096 52.5062 157.171 52.5709C157.249 52.6321 157.317 52.7019 157.375 52.7802L157.365 52.5658C157.361 52.4909 157.377 52.4381 157.411 52.4075C157.448 52.3735 157.506 52.3564 157.584 52.3564C157.649 52.3564 157.695 52.3667 157.722 52.3871C157.753 52.4075 157.773 52.4364 157.784 52.4739C157.794 52.5113 157.799 52.5572 157.799 52.6117V54.5823C157.799 54.63 157.794 54.6725 157.784 54.71C157.773 54.7474 157.753 54.7746 157.722 54.7917C157.692 54.8121 157.644 54.8223 157.579 54.8223ZM156.594 54.3985C156.73 54.3985 156.854 54.3628 156.967 54.2913C157.082 54.2199 157.173 54.1246 157.237 54.0054C157.305 53.8829 157.339 53.7434 157.339 53.5868C157.339 53.4268 157.304 53.2873 157.232 53.1682C157.164 53.0457 157.072 52.9504 156.956 52.8823C156.844 52.8108 156.72 52.7751 156.584 52.7751C156.424 52.7751 156.284 52.8125 156.165 52.8874C156.049 52.9589 155.958 53.0559 155.889 53.1784C155.821 53.3009 155.787 53.4405 155.787 53.597C155.787 53.7502 155.821 53.888 155.889 54.0105C155.958 54.1297 156.051 54.225 156.17 54.2964C156.293 54.3645 156.434 54.3985 156.594 54.3985ZM159.668 54.8274C159.502 54.8274 159.35 54.7968 159.214 54.7355C159.078 54.6742 158.962 54.5874 158.867 54.4751C158.772 54.3628 158.697 54.2318 158.642 54.082C158.591 53.9323 158.567 53.7672 158.571 53.5868C158.571 53.4098 158.596 53.2465 158.647 53.0967C158.698 52.9435 158.772 52.8125 158.867 52.7036C158.966 52.5913 159.081 52.5045 159.214 52.4432C159.35 52.382 159.502 52.3513 159.668 52.3513C159.825 52.3513 159.971 52.382 160.108 52.4432C160.247 52.5045 160.368 52.5913 160.47 52.7036C160.576 52.8125 160.657 52.9418 160.715 53.0916C160.776 53.2414 160.807 53.4047 160.807 53.5817C160.807 53.7621 160.776 53.9289 160.715 54.082C160.657 54.2318 160.576 54.3628 160.47 54.4751C160.368 54.5874 160.247 54.6742 160.108 54.7355C159.971 54.7968 159.825 54.8274 159.668 54.8274ZM159.602 54.3934C159.745 54.3934 159.874 54.3594 159.99 54.2913C160.106 54.2233 160.196 54.1297 160.261 54.0105C160.329 53.888 160.363 53.7485 160.363 53.5919C160.363 53.4319 160.329 53.2924 160.261 53.1733C160.196 53.0508 160.106 52.9555 159.99 52.8874C159.878 52.8193 159.748 52.7853 159.602 52.7853C159.459 52.7853 159.33 52.8193 159.214 52.8874C159.102 52.9555 159.012 53.0508 158.944 53.1733C158.879 53.2924 158.847 53.4319 158.847 53.5919C158.847 53.7485 158.879 53.888 158.944 54.0105C159.012 54.1297 159.102 54.2233 159.214 54.2913C159.33 54.3594 159.459 54.3934 159.602 54.3934ZM158.607 54.8325C158.542 54.8325 158.493 54.8223 158.459 54.8019C158.428 54.7848 158.407 54.7593 158.397 54.7253C158.387 54.6878 158.382 54.647 158.382 54.6028V51.4528C158.382 51.4018 158.387 51.3592 158.397 51.3252C158.407 51.2911 158.428 51.2656 158.459 51.2486C158.493 51.2282 158.542 51.218 158.607 51.218C158.671 51.218 158.719 51.2282 158.75 51.2486C158.78 51.269 158.801 51.2962 158.811 51.3303C158.821 51.3643 158.826 51.4052 158.826 51.4528V54.6487C158.819 54.7134 158.799 54.7593 158.765 54.7865C158.734 54.8172 158.681 54.8325 158.607 54.8325ZM163.407 54.8223C163.333 54.8223 163.278 54.807 163.244 54.7763C163.213 54.7457 163.195 54.6981 163.188 54.6334L163.208 54.3781C163.174 54.4326 163.122 54.4955 163.05 54.567C162.979 54.6351 162.885 54.6964 162.769 54.7508C162.654 54.8019 162.512 54.8274 162.346 54.8274C162.182 54.8274 162.029 54.7951 161.886 54.7304C161.747 54.6657 161.622 54.5755 161.513 54.4598C161.408 54.3441 161.325 54.2114 161.263 54.0616C161.205 53.9118 161.176 53.7519 161.176 53.5817C161.176 53.4149 161.205 53.2584 161.263 53.112C161.325 52.9623 161.41 52.8312 161.519 52.7189C161.627 52.6066 161.752 52.5181 161.891 52.4534C162.034 52.3888 162.186 52.3564 162.346 52.3564C162.495 52.3564 162.623 52.3769 162.728 52.4177C162.834 52.4551 162.924 52.5062 162.999 52.5709C163.077 52.6321 163.145 52.7019 163.203 52.7802L163.193 52.5658C163.19 52.4909 163.205 52.4381 163.239 52.4075C163.276 52.3735 163.334 52.3564 163.413 52.3564C163.477 52.3564 163.523 52.3667 163.55 52.3871C163.581 52.4075 163.601 52.4364 163.612 52.4739C163.622 52.5113 163.627 52.5572 163.627 52.6117V54.5823C163.627 54.63 163.622 54.6725 163.612 54.71C163.601 54.7474 163.581 54.7746 163.55 54.7917C163.52 54.8121 163.472 54.8223 163.407 54.8223ZM162.422 54.3985C162.558 54.3985 162.683 54.3628 162.795 54.2913C162.911 54.2199 163.001 54.1246 163.065 54.0054C163.134 53.8829 163.168 53.7434 163.168 53.5868C163.168 53.4268 163.132 53.2873 163.06 53.1682C162.992 53.0457 162.9 52.9504 162.785 52.8823C162.672 52.8108 162.548 52.7751 162.412 52.7751C162.252 52.7751 162.112 52.8125 161.993 52.8874C161.878 52.9589 161.786 53.0559 161.718 53.1784C161.65 53.3009 161.616 53.4405 161.616 53.597C161.616 53.7502 161.65 53.888 161.718 54.0105C161.786 54.1297 161.879 54.225 161.998 54.2964C162.121 54.3645 162.262 54.3985 162.422 54.3985ZM165.058 54.8529C164.976 54.8529 164.891 54.8444 164.802 54.8274C164.714 54.8104 164.627 54.7865 164.542 54.7559C164.46 54.7219 164.387 54.6827 164.322 54.6385C164.261 54.5942 164.215 54.5449 164.185 54.4904C164.168 54.4564 164.157 54.4258 164.154 54.3985C164.151 54.3679 164.156 54.339 164.169 54.3118C164.183 54.2845 164.203 54.2573 164.231 54.2301C164.265 54.1892 164.299 54.1705 164.333 54.1739C164.367 54.1739 164.409 54.196 164.46 54.2403C164.498 54.2641 164.542 54.2913 164.593 54.322C164.644 54.3492 164.697 54.3747 164.751 54.3985C164.806 54.419 164.86 54.4377 164.915 54.4547C164.973 54.4683 165.029 54.4751 165.083 54.4751C165.24 54.4751 165.366 54.4462 165.461 54.3883C165.556 54.3271 165.604 54.2471 165.604 54.1484C165.604 54.0905 165.592 54.0412 165.568 54.0003C165.544 53.9595 165.512 53.9255 165.471 53.8982C165.43 53.8676 165.384 53.8421 165.333 53.8217C165.282 53.8012 165.224 53.7825 165.16 53.7655C165.098 53.7451 165.037 53.7264 164.976 53.7093C164.884 53.6855 164.794 53.6583 164.705 53.6277C164.617 53.597 164.537 53.5579 164.465 53.5102C164.394 53.4592 164.336 53.3962 164.292 53.3213C164.248 53.2431 164.225 53.1444 164.225 53.0252C164.225 52.8857 164.261 52.7649 164.333 52.6628C164.404 52.5607 164.505 52.4824 164.634 52.4279C164.763 52.3701 164.915 52.3411 165.088 52.3411C165.163 52.3411 165.233 52.3462 165.298 52.3564C165.362 52.3667 165.423 52.3837 165.481 52.4075C165.543 52.4279 165.6 52.4534 165.655 52.4841C165.709 52.5113 165.762 52.5453 165.813 52.5862C165.874 52.627 165.907 52.6713 165.91 52.7189C165.914 52.7666 165.895 52.8159 165.854 52.867C165.823 52.9112 165.789 52.9401 165.752 52.9538C165.714 52.964 165.677 52.9538 165.64 52.9231C165.585 52.8823 165.527 52.8465 165.466 52.8159C165.405 52.7853 165.342 52.7598 165.277 52.7393C165.212 52.7189 165.146 52.7087 165.078 52.7087C164.993 52.7087 164.916 52.7223 164.848 52.7495C164.784 52.7734 164.733 52.8108 164.695 52.8619C164.661 52.9095 164.644 52.964 164.644 53.0252C164.644 53.0797 164.658 53.1239 164.685 53.158C164.716 53.192 164.753 53.2209 164.797 53.2448C164.845 53.2686 164.899 53.2907 164.961 53.3111C165.025 53.3281 165.092 53.3452 165.16 53.3622C165.258 53.386 165.359 53.4149 165.461 53.449C165.566 53.4796 165.66 53.5221 165.742 53.5766C165.827 53.6277 165.895 53.6974 165.946 53.7859C166 53.871 166.028 53.985 166.028 54.128C166.028 54.3526 165.939 54.5296 165.762 54.6589C165.585 54.7882 165.35 54.8529 165.058 54.8529ZM167.743 54.8529C167.539 54.8529 167.357 54.8189 167.197 54.7508C167.037 54.6827 166.901 54.5908 166.788 54.4751C166.679 54.356 166.596 54.2199 166.538 54.0667C166.48 53.9135 166.451 53.7485 166.451 53.5715C166.451 53.3367 166.506 53.1273 166.615 52.9435C166.724 52.7598 166.873 52.6151 167.064 52.5096C167.258 52.4007 167.479 52.3462 167.728 52.3462C167.898 52.3462 168.049 52.3735 168.182 52.4279C168.318 52.479 168.434 52.5487 168.529 52.6372C168.624 52.7257 168.698 52.8244 168.749 52.9333C168.8 53.0422 168.825 53.1512 168.825 53.2601C168.825 53.4337 168.784 53.5562 168.703 53.6277C168.621 53.6957 168.521 53.7298 168.401 53.7298H166.926C166.923 53.8795 166.962 54.0088 167.043 54.1178C167.129 54.2233 167.234 54.305 167.36 54.3628C167.489 54.4207 167.619 54.4496 167.748 54.4496C167.843 54.4496 167.925 54.4445 167.993 54.4343C168.061 54.4241 168.121 54.4105 168.172 54.3934C168.223 54.3764 168.267 54.3594 168.304 54.3424C168.342 54.3254 168.374 54.3084 168.401 54.2913C168.432 54.2743 168.461 54.2624 168.488 54.2556C168.519 54.2488 168.548 54.2522 168.575 54.2658C168.606 54.276 168.63 54.2981 168.647 54.3322C168.667 54.3594 168.681 54.3849 168.687 54.4088C168.694 54.4326 168.698 54.4581 168.698 54.4853C168.698 54.533 168.657 54.5857 168.575 54.6436C168.493 54.7015 168.379 54.7508 168.233 54.7917C168.09 54.8325 167.927 54.8529 167.743 54.8529ZM166.926 53.4285H168.207C168.272 53.4285 168.32 53.42 168.35 53.403C168.384 53.386 168.401 53.3401 168.401 53.2652C168.401 53.1699 168.373 53.0848 168.315 53.0099C168.257 52.9316 168.177 52.8687 168.075 52.821C167.976 52.7734 167.862 52.7495 167.733 52.7495C167.583 52.7495 167.445 52.7802 167.319 52.8414C167.197 52.8993 167.1 52.9793 167.028 53.0814C166.957 53.1835 166.923 53.2992 166.926 53.4285Z" fill="black"/>
<defs>
<linearGradient id="paint0_linear_938_62" x1="10.2609" y1="4.94821" x2="47.3944" y2="67.2958" gradientUnits="userSpaceOnUse">
<stop offset="0.442095" stop-color="#2A94C7"/>
<stop offset="1" stop-color="#044479"/>
</linearGradient>
<linearGradient id="paint1_linear_938_62" x1="30.8868" y1="19.2723" x2="48.5" y2="45.1816" gradientUnits="userSpaceOnUse">
<stop stop-color="#FCD84C"/>
<stop offset="0.489583" stop-color="#EC1C24"/>
<stop offset="1" stop-color="#681A52"/>
</linearGradient>
</defs>
</svg>
