<svg width="80" height="81" viewBox="0 0 80 81" fill="none" xmlns="http://www.w3.org/2000/svg">
<circle cx="40" cy="40.3956" r="40" fill="#681A52"/>
<path d="M51.7832 28.6123C49.188 26.0143 45.8075 24.3462 42.1668 23.867C38.526 23.3878 34.829 24.1244 31.6499 25.9623" stroke="white" stroke-width="3.33333" stroke-linecap="round" stroke-linejoin="round"/>
<path d="M26.6667 30.3956H26.6834" stroke="white" stroke-width="3.33333" stroke-linecap="round" stroke-linejoin="round"/>
<path d="M23.8166 36.4289C23.1918 38.974 23.1759 41.6305 23.7703 44.1829C24.3647 46.7353 25.5527 49.1115 27.2377 51.1187C28.9227 53.1259 31.0572 54.7074 33.4681 55.7349C35.879 56.7624 38.4981 57.2069 41.113 57.0323C43.7279 56.8577 46.2647 56.0689 48.5175 54.73C50.7704 53.3911 52.6758 51.5398 54.0789 49.3265C55.4821 47.1131 56.3436 44.6 56.5934 41.9913C56.8432 39.3825 56.4743 36.7516 55.5166 34.3122" stroke="white" stroke-width="3.33333" stroke-linecap="round" stroke-linejoin="round"/>
<path d="M47.0667 33.329C46.1075 32.3643 44.9616 31.6054 43.6991 31.0988C42.4365 30.5922 41.0839 30.3485 39.7239 30.3827C38.364 30.4168 37.0253 30.7281 35.7898 31.2975C34.5543 31.8669 33.4479 32.6823 32.5384 33.694C31.6289 34.7057 30.9354 35.8923 30.5003 37.1812C30.0652 38.4702 29.8977 39.8343 30.008 41.1903C30.1183 42.5462 30.5041 43.8653 31.1418 45.067C31.7795 46.2687 32.6556 47.3276 33.7167 48.179" stroke="white" stroke-width="3.33333" stroke-linecap="round" stroke-linejoin="round"/>
<path d="M40 50.3956H40.0167" stroke="white" stroke-width="3.33333" stroke-linecap="round" stroke-linejoin="round"/>
<path d="M49.9834 39.829C50.0741 41.4146 49.7858 42.999 49.1424 44.4511C48.499 45.9031 47.5189 47.181 46.2834 48.179" stroke="white" stroke-width="3.33333" stroke-linecap="round" stroke-linejoin="round"/>
<path d="M40.0001 43.7289C41.841 43.7289 43.3334 42.2365 43.3334 40.3956C43.3334 38.5546 41.841 37.0623 40.0001 37.0623C38.1591 37.0623 36.6667 38.5546 36.6667 40.3956C36.6667 42.2365 38.1591 43.7289 40.0001 43.7289Z" stroke="white" stroke-width="3.33333" stroke-linecap="round" stroke-linejoin="round"/>
<path d="M42.3501 38.0456L51.7834 28.6123" stroke="white" stroke-width="3.33333" stroke-linecap="round" stroke-linejoin="round"/>
</svg>
